<svg width="68" height="24" viewBox="0 0 68 24" fill="none" xmlns="http://www.w3.org/2000/svg">
<g filter="url(#filter0_d_47_97)">
<path d="M6.28 15H4.44V0.68H6.28V6.82H13.44V0.68H15.28V15H13.44V8.54H6.28V15ZM20.2109 1.82C20.2109 2.18 20.0843 2.48667 19.8309 2.74C19.5776 2.99333 19.2709 3.12 18.9109 3.12C18.5509 3.12 18.2443 2.99333 17.9909 2.74C17.7376 2.48667 17.6109 2.18 17.6109 1.82C17.6109 1.46 17.7376 1.15333 17.9909 0.899999C18.2443 0.646666 18.5509 0.519999 18.9109 0.519999C19.2709 0.519999 19.5776 0.646666 19.8309 0.899999C20.0843 1.15333 20.2109 1.46 20.2109 1.82ZM19.8309 5.2V15H17.9909V5.2H19.8309ZM24.0655 15H22.2255V5.2H23.9855V6.8H24.0655C24.2521 6.28 24.6321 5.84 25.2055 5.48C25.7921 5.10667 26.3655 4.92 26.9255 4.92C27.4588 4.92 27.9121 5 28.2855 5.16L27.7255 6.94C27.4988 6.84667 27.1388 6.8 26.6455 6.8C25.9521 6.8 25.3455 7.08 24.8255 7.64C24.3188 8.2 24.0655 8.85333 24.0655 9.6V15ZM33.2856 15.32C31.8456 15.32 30.659 14.8267 29.7256 13.84C28.7923 12.8533 28.3256 11.6067 28.3256 10.1C28.3256 8.60667 28.779 7.36667 29.6856 6.38C30.5923 5.38 31.7523 4.88 33.1656 4.88C34.619 4.88 35.7723 5.35333 36.6256 6.3C37.4923 7.23333 37.9256 8.54667 37.9256 10.24L37.9056 10.44H30.2056C30.2323 11.4 30.5523 12.1733 31.1656 12.76C31.779 13.3467 32.5123 13.64 33.3656 13.64C34.539 13.64 35.459 13.0533 36.1256 11.88L37.7656 12.68C37.3256 13.5067 36.7123 14.1533 35.9256 14.62C35.1523 15.0867 34.2723 15.32 33.2856 15.32ZM30.3456 8.92H35.9656C35.9123 8.24 35.6323 7.68 35.1256 7.24C34.6323 6.78667 33.9656 6.56 33.1256 6.56C32.4323 6.56 31.8323 6.77333 31.3256 7.2C30.8323 7.62667 30.5056 8.2 30.3456 8.92ZM48.9122 15.32C47.3255 15.32 46.0455 14.8 45.0722 13.76C44.0989 12.7333 43.6122 11.3733 43.6122 9.68V0.68H45.4522V9.76C45.4522 10.9333 45.7589 11.86 46.3722 12.54C46.9855 13.22 47.8322 13.56 48.9122 13.56C49.9922 13.56 50.8389 13.22 51.4522 12.54C52.0655 11.86 52.3722 10.9333 52.3722 9.76V0.68H54.2122V9.68C54.2122 11.4133 53.7322 12.7867 52.7722 13.8C51.8122 14.8133 50.5255 15.32 48.9122 15.32ZM63.9442 12.28C63.9442 13.1333 63.5709 13.8533 62.8242 14.44C62.0776 15.0267 61.1376 15.32 60.0042 15.32C59.0176 15.32 58.1509 15.0667 57.4042 14.56C56.6576 14.04 56.1242 13.36 55.8042 12.52L57.4442 11.82C57.6842 12.4067 58.0309 12.8667 58.4842 13.2C58.9509 13.52 59.4576 13.68 60.0042 13.68C60.5909 13.68 61.0776 13.5533 61.4642 13.3C61.8642 13.0467 62.0642 12.7467 62.0642 12.4C62.0642 11.7733 61.5842 11.3133 60.6242 11.02L58.9442 10.6C57.0376 10.12 56.0842 9.2 56.0842 7.84C56.0842 6.94667 56.4442 6.23333 57.1642 5.7C57.8976 5.15333 58.8309 4.88 59.9642 4.88C60.8309 4.88 61.6109 5.08667 62.3042 5.5C63.0109 5.91333 63.5042 6.46667 63.7842 7.16L62.1442 7.84C61.9576 7.42667 61.6509 7.10667 61.2242 6.88C60.8109 6.64 60.3442 6.52 59.8242 6.52C59.3442 6.52 58.9109 6.64 58.5242 6.88C58.1509 7.12 57.9642 7.41333 57.9642 7.76C57.9642 8.32 58.4909 8.72 59.5442 8.96L61.0242 9.34C62.9709 9.82 63.9442 10.8 63.9442 12.28Z" fill="black"/>
<path d="M6.28 15V16H7.28V15H6.28ZM4.44 15H3.44V16H4.44V15ZM4.44 0.68V-0.32H3.44V0.68H4.44ZM6.28 0.68H7.28V-0.32H6.28V0.68ZM6.28 6.82H5.28V7.82H6.28V6.82ZM13.44 6.82V7.82H14.44V6.82H13.44ZM13.44 0.68V-0.32H12.44V0.68H13.44ZM15.28 0.68H16.28V-0.32H15.28V0.68ZM15.28 15V16H16.28V15H15.28ZM13.44 15H12.44V16H13.44V15ZM13.44 8.54H14.44V7.54H13.44V8.54ZM6.28 8.54V7.54H5.28V8.54H6.28ZM6.28 14H4.44V16H6.28V14ZM5.44 15V0.68H3.44V15H5.44ZM4.44 1.68H6.28V-0.32H4.44V1.68ZM5.28 0.68V6.82H7.28V0.68H5.28ZM6.28 7.82H13.44V5.82H6.28V7.82ZM14.44 6.82V0.68H12.44V6.82H14.44ZM13.44 1.68H15.28V-0.32H13.44V1.68ZM14.28 0.68V15H16.28V0.68H14.28ZM15.28 14H13.44V16H15.28V14ZM14.44 15V8.54H12.44V15H14.44ZM13.44 7.54H6.28V9.54H13.44V7.54ZM5.28 8.54V15H7.28V8.54H5.28ZM19.8309 2.74L19.1238 2.03289L19.1238 2.03289L19.8309 2.74ZM17.9909 2.74L17.2838 3.44711L17.9909 2.74ZM17.9909 0.899999L17.2838 0.192892L17.9909 0.899999ZM19.8309 0.899999L19.1238 1.60711L19.1238 1.60711L19.8309 0.899999ZM19.8309 5.2H20.8309V4.2H19.8309V5.2ZM19.8309 15V16H20.8309V15H19.8309ZM17.9909 15H16.9909V16H17.9909V15ZM17.9909 5.2V4.2H16.9909V5.2H17.9909ZM19.2109 1.82C19.2109 1.91623 19.1886 1.96811 19.1238 2.03289L20.538 3.44711C20.9799 3.00522 21.2109 2.44377 21.2109 1.82H19.2109ZM19.1238 2.03289C19.0591 2.09767 19.0072 2.12 18.9109 2.12V4.12C19.5347 4.12 20.0962 3.88899 20.538 3.44711L19.1238 2.03289ZM18.9109 2.12C18.8147 2.12 18.7628 2.09767 18.698 2.03289L17.2838 3.44711C17.7257 3.88899 18.2872 4.12 18.9109 4.12V2.12ZM18.698 2.03289C18.6333 1.96811 18.6109 1.91623 18.6109 1.82H16.6109C16.6109 2.44377 16.8419 3.00522 17.2838 3.44711L18.698 2.03289ZM18.6109 1.82C18.6109 1.72377 18.6333 1.67188 18.698 1.60711L17.2838 0.192892C16.8419 0.63478 16.6109 1.19623 16.6109 1.82H18.6109ZM18.698 1.60711C18.7628 1.54233 18.8147 1.52 18.9109 1.52V-0.480001C18.2872 -0.480001 17.7257 -0.248996 17.2838 0.192892L18.698 1.60711ZM18.9109 1.52C19.0072 1.52 19.0591 1.54233 19.1238 1.60711L20.538 0.192892C20.0962 -0.248996 19.5347 -0.480001 18.9109 -0.480001V1.52ZM19.1238 1.60711C19.1886 1.67188 19.2109 1.72377 19.2109 1.82H21.2109C21.2109 1.19623 20.9799 0.63478 20.538 0.192892L19.1238 1.60711ZM18.8309 5.2V15H20.8309V5.2H18.8309ZM19.8309 14H17.9909V16H19.8309V14ZM18.9909 15V5.2H16.9909V15H18.9909ZM17.9909 6.2H19.8309V4.2H17.9909V6.2ZM24.0655 15V16H25.0655V15H24.0655ZM22.2255 15H21.2255V16H22.2255V15ZM22.2255 5.2V4.2H21.2255V5.2H22.2255ZM23.9855 5.2H24.9855V4.2H23.9855V5.2ZM23.9855 6.8H22.9855V7.8H23.9855V6.8ZM24.0655 6.8V7.8H24.769L25.0067 7.13786L24.0655 6.8ZM25.2055 5.48L25.7372 6.32691L25.7423 6.32366L25.2055 5.48ZM28.2855 5.16L29.2394 5.46011L29.5109 4.5972L28.6794 4.24085L28.2855 5.16ZM27.7255 6.94L27.3447 7.86468L28.3523 8.27958L28.6794 7.2401L27.7255 6.94ZM24.8255 7.64L24.0926 6.95949L24.0839 6.96909L24.8255 7.64ZM24.0655 14H22.2255V16H24.0655V14ZM23.2255 15V5.2H21.2255V15H23.2255ZM22.2255 6.2H23.9855V4.2H22.2255V6.2ZM22.9855 5.2V6.8H24.9855V5.2H22.9855ZM23.9855 7.8H24.0655V5.8H23.9855V7.8ZM25.0067 7.13786C25.1019 6.87267 25.3096 6.59539 25.7372 6.32689L24.6737 4.63311C23.9547 5.0846 23.4024 5.68733 23.1243 6.46213L25.0067 7.13786ZM25.7423 6.32366C26.2073 6.02777 26.5969 5.92 26.9255 5.92V3.92C26.134 3.92 25.377 4.18556 24.6686 4.63634L25.7423 6.32366ZM26.9255 5.92C27.3637 5.92 27.6751 5.98637 27.8916 6.07914L28.6794 4.24085C28.1492 4.01363 27.5539 3.92 26.9255 3.92V5.92ZM27.3316 4.85989L26.7716 6.63989L28.6794 7.2401L29.2394 5.46011L27.3316 4.85989ZM28.1062 6.01532C27.6894 5.84369 27.1641 5.8 26.6455 5.8V7.8C26.8633 7.8 27.0316 7.81045 27.1569 7.8267C27.2188 7.83473 27.2652 7.84353 27.2984 7.85144C27.332 7.85947 27.3458 7.8651 27.3447 7.86468L28.1062 6.01532ZM26.6455 5.8C25.644 5.8 24.7804 6.21892 24.0927 6.95955L25.5583 8.32045C25.9105 7.94107 26.2603 7.8 26.6455 7.8V5.8ZM24.0839 6.96909C23.413 7.71062 23.0655 8.60227 23.0655 9.6H25.0655C25.0655 9.10439 25.2246 8.68937 25.567 8.31091L24.0839 6.96909ZM23.0655 9.6V15H25.0655V9.6H23.0655ZM29.7256 13.84L30.4521 13.1528L29.7256 13.84ZM29.6856 6.38L30.422 7.05664L30.4265 7.05169L29.6856 6.38ZM36.6256 6.3L35.8829 6.96954L35.8878 6.97503L35.8928 6.98045L36.6256 6.3ZM37.9256 10.24L38.9207 10.3395L38.9256 10.2899V10.24H37.9256ZM37.9056 10.44V11.44H38.8106L38.9007 10.5395L37.9056 10.44ZM30.2056 10.44V9.44H29.1775L29.206 10.4678L30.2056 10.44ZM31.1656 12.76L30.4744 13.4826L30.4744 13.4826L31.1656 12.76ZM36.1256 11.88L36.564 10.9812L35.7201 10.5695L35.2562 11.386L36.1256 11.88ZM37.7656 12.68L38.6484 13.1498L39.1351 12.2354L38.204 11.7812L37.7656 12.68ZM35.9256 14.62L35.4154 13.7599L35.409 13.7638L35.9256 14.62ZM30.3456 8.92L29.3694 8.70307L29.099 9.92H30.3456V8.92ZM35.9656 8.92V9.92H37.0471L36.9626 8.84181L35.9656 8.92ZM35.1256 7.24L34.449 7.97633L34.4593 7.98583L34.4699 7.99503L35.1256 7.24ZM31.3256 7.2L30.6814 6.43502L30.6715 6.44364L31.3256 7.2ZM33.2856 14.32C32.1019 14.32 31.1842 13.9267 30.4521 13.1528L28.9992 14.5272C30.1337 15.7266 31.5893 16.32 33.2856 16.32V14.32ZM30.4521 13.1528C29.7142 12.3728 29.3256 11.3814 29.3256 10.1H27.3256C27.3256 11.8319 27.8704 13.3339 28.9992 14.5272L30.4521 13.1528ZM29.3256 10.1C29.3256 8.82629 29.7047 7.83714 30.422 7.05662L28.9493 5.70337C27.8532 6.89619 27.3256 8.38704 27.3256 10.1H29.3256ZM30.4265 7.05169C31.1337 6.27163 32.0195 5.88 33.1656 5.88V3.88C31.4851 3.88 30.0509 4.48836 28.9448 5.70831L30.4265 7.05169ZM33.1656 5.88C34.3797 5.88 35.2467 6.26381 35.8829 6.96954L37.3684 5.63046C36.2979 4.44286 34.8582 3.88 33.1656 3.88V5.88ZM35.8928 6.98045C36.5375 7.67472 36.9256 8.71402 36.9256 10.24H38.9256C38.9256 8.37931 38.4471 6.79195 37.3584 5.61955L35.8928 6.98045ZM36.9306 10.1405L36.9106 10.3405L38.9007 10.5395L38.9207 10.3395L36.9306 10.1405ZM37.9056 9.44H30.2056V11.44H37.9056V9.44ZM29.206 10.4678C29.2389 11.6533 29.6452 12.6895 30.4744 13.4826L31.8568 12.0374C31.4594 11.6572 31.2256 11.1467 31.2052 10.4122L29.206 10.4678ZM30.4744 13.4826C31.275 14.2484 32.2563 14.64 33.3656 14.64V12.64C32.7683 12.64 32.283 12.4449 31.8568 12.0374L30.4744 13.4826ZM33.3656 14.64C34.9591 14.64 36.1827 13.8038 36.9951 12.374L35.2562 11.386C34.7352 12.3029 34.1188 12.64 33.3656 12.64V14.64ZM35.6872 12.7788L37.3272 13.5788L38.204 11.7812L36.564 10.9812L35.6872 12.7788ZM36.8829 12.2102C36.5268 12.8791 36.0406 13.3891 35.4154 13.7599L36.4358 15.4801C37.384 14.9176 38.1244 14.1342 38.6484 13.1498L36.8829 12.2102ZM35.409 13.7638C34.8058 14.1278 34.1076 14.32 33.2856 14.32V16.32C34.437 16.32 35.4988 16.0455 36.4423 15.4762L35.409 13.7638ZM30.3456 9.92H35.9656V7.92H30.3456V9.92ZM36.9626 8.84181C36.8891 7.90497 36.4898 7.1002 35.7813 6.48497L34.4699 7.99503C34.7748 8.2598 34.9355 8.57503 34.9687 8.99819L36.9626 8.84181ZM35.8023 6.50367C35.0808 5.84071 34.15 5.56 33.1256 5.56V7.56C33.7813 7.56 34.1838 7.73262 34.449 7.97633L35.8023 6.50367ZM33.1256 5.56C32.2085 5.56 31.3774 5.84906 30.6815 6.43509L31.9698 7.96491C32.2872 7.6976 32.656 7.56 33.1256 7.56V5.56ZM30.6715 6.44364C29.9947 7.02893 29.5697 7.80203 29.3694 8.70307L31.3218 9.13693C31.4416 8.59797 31.6699 8.2244 31.9798 7.95636L30.6715 6.44364ZM45.0722 13.76L45.8023 13.0767L45.7979 13.072L45.0722 13.76ZM43.6122 0.68V-0.32H42.6122V0.68H43.6122ZM45.4522 0.68H46.4522V-0.32H45.4522V0.68ZM46.3722 12.54L45.6296 13.2098L45.6296 13.2098L46.3722 12.54ZM51.4522 12.54L52.1948 13.2098L52.1948 13.2098L51.4522 12.54ZM52.3722 0.68V-0.32H51.3722V0.68H52.3722ZM54.2122 0.68H55.2122V-0.32H54.2122V0.68ZM52.7722 13.8L52.0462 13.1123L52.0462 13.1123L52.7722 13.8ZM48.9122 14.32C47.5674 14.32 46.564 13.8905 45.8023 13.0767L44.3421 14.4433C45.5271 15.7095 47.0837 16.32 48.9122 16.32V14.32ZM45.7979 13.072C45.0344 12.2666 44.6122 11.1709 44.6122 9.68H42.6122C42.6122 11.5758 43.1633 13.2 44.3465 14.448L45.7979 13.072ZM44.6122 9.68V0.68H42.6122V9.68H44.6122ZM43.6122 1.68H45.4522V-0.32H43.6122V1.68ZM44.4522 0.68V9.76H46.4522V0.68H44.4522ZM44.4522 9.76C44.4522 11.109 44.8081 12.2989 45.6296 13.2098L47.1148 11.8702C46.7096 11.4211 46.4522 10.7577 46.4522 9.76H44.4522ZM45.6296 13.2098C46.4668 14.138 47.6047 14.56 48.9122 14.56V12.56C48.0597 12.56 47.5042 12.302 47.1148 11.8702L45.6296 13.2098ZM48.9122 14.56C50.2197 14.56 51.3575 14.138 52.1948 13.2098L50.7096 11.8702C50.3202 12.302 49.7647 12.56 48.9122 12.56V14.56ZM52.1948 13.2098C53.0163 12.2989 53.3722 11.109 53.3722 9.76H51.3722C51.3722 10.7577 51.1147 11.4211 50.7096 11.8702L52.1948 13.2098ZM53.3722 9.76V0.68H51.3722V9.76H53.3722ZM52.3722 1.68H54.2122V-0.32H52.3722V1.68ZM53.2122 0.68V9.68H55.2122V0.68H53.2122ZM53.2122 9.68C53.2122 11.2224 52.7902 12.327 52.0462 13.1123L53.4981 14.4877C54.6742 13.2463 55.2122 11.6043 55.2122 9.68H53.2122ZM52.0462 13.1123C51.305 13.8947 50.2977 14.32 48.9122 14.32V16.32C50.7534 16.32 52.3194 15.732 53.4981 14.4877L52.0462 13.1123ZM62.8242 14.44L63.442 15.2263L63.442 15.2263L62.8242 14.44ZM57.4042 14.56L56.8327 15.3807L56.8427 15.3875L57.4042 14.56ZM55.8042 12.52L55.4117 11.6003L54.5275 11.9777L54.8697 12.876L55.8042 12.52ZM57.4442 11.82L58.3698 11.4414L57.9854 10.5017L57.0517 10.9003L57.4442 11.82ZM58.4842 13.2L57.8918 14.0057L57.9051 14.0154L57.9187 14.0247L58.4842 13.2ZM61.4642 13.3L60.9292 12.4552L60.9226 12.4593L60.9162 12.4635L61.4642 13.3ZM60.6242 11.02L60.9164 10.0636L60.8918 10.0561L60.8668 10.0499L60.6242 11.02ZM58.9442 10.6L58.7001 11.5697L58.7017 11.5701L58.9442 10.6ZM57.1642 5.7L57.7594 6.50356L57.7619 6.50175L57.1642 5.7ZM62.3042 5.5L61.7921 6.35898L61.7993 6.36319L62.3042 5.5ZM63.7842 7.16L64.1672 8.08374L65.0825 7.70425L64.7115 6.78554L63.7842 7.16ZM62.1442 7.84L61.2328 8.25159L61.6318 9.13501L62.5272 8.76374L62.1442 7.84ZM61.2242 6.88L60.7221 7.74479L60.7384 7.75426L60.7551 7.76312L61.2242 6.88ZM58.5242 6.88L57.9969 6.03036L57.9901 6.03454L57.9835 6.03882L58.5242 6.88ZM59.5442 8.96L59.7929 7.99142L59.7797 7.98802L59.7664 7.98499L59.5442 8.96ZM61.0242 9.34L60.7755 10.3086L60.7848 10.3109L61.0242 9.34ZM62.9442 12.28C62.9442 12.789 62.7428 13.2322 62.2064 13.6537L63.442 15.2263C64.399 14.4745 64.9442 13.4776 64.9442 12.28H62.9442ZM62.2064 13.6537C61.6683 14.0765 60.9584 14.32 60.0042 14.32V16.32C61.3167 16.32 62.4868 15.9768 63.442 15.2263L62.2064 13.6537ZM60.0042 14.32C59.1982 14.32 58.5312 14.1163 57.9657 13.7325L56.8427 15.3875C57.7705 16.0171 58.8369 16.32 60.0042 16.32V14.32ZM57.9757 13.7394C57.3918 13.3328 56.9862 12.8137 56.7387 12.164L54.8697 12.876C55.2622 13.9063 55.9233 14.7472 56.8327 15.3806L57.9757 13.7394ZM56.1968 13.4397L57.8368 12.7397L57.0517 10.9003L55.4117 11.6003L56.1968 13.4397ZM56.5187 12.1986C56.8193 12.9335 57.2722 13.55 57.8918 14.0057L59.0766 12.3943C58.7896 12.1833 58.5491 11.8798 58.3698 11.4414L56.5187 12.1986ZM57.9187 14.0247C58.5457 14.4546 59.2483 14.68 60.0042 14.68V12.68C59.6668 12.68 59.3561 12.5854 59.0497 12.3753L57.9187 14.0247ZM60.0042 14.68C60.7335 14.68 61.424 14.5219 62.0122 14.1365L60.9162 12.4635C60.7311 12.5848 60.4483 12.68 60.0042 12.68V14.68ZM61.9993 14.1448C62.5713 13.7825 63.0642 13.2084 63.0642 12.4H61.0642C61.0642 12.389 61.0661 12.373 61.0714 12.3558C61.0766 12.3389 61.0823 12.3301 61.0822 12.3303C61.08 12.3335 61.0463 12.381 60.9292 12.4552L61.9993 14.1448ZM63.0642 12.4C63.0642 11.7961 62.8195 11.2688 62.3961 10.863C62.0001 10.4835 61.4764 10.2347 60.9164 10.0636L60.332 11.9764C60.732 12.0986 60.9283 12.2265 61.0123 12.307C61.0689 12.3612 61.0642 12.3773 61.0642 12.4H63.0642ZM60.8668 10.0499L59.1868 9.62986L58.7017 11.5701L60.3817 11.9901L60.8668 10.0499ZM59.1883 9.63026C58.3282 9.41372 57.7981 9.12428 57.4936 8.83042C57.218 8.56444 57.0842 8.25672 57.0842 7.84H55.0842C55.0842 8.78328 55.4271 9.61556 56.1048 10.2696C56.7536 10.8957 57.6536 11.3063 58.7001 11.5697L59.1883 9.63026ZM57.0842 7.84C57.0842 7.26465 57.2931 6.84896 57.7594 6.50356L56.569 4.89644C55.5953 5.6177 55.0842 6.62869 55.0842 7.84H57.0842ZM57.7619 6.50175C58.2848 6.11193 58.9939 5.88 59.9642 5.88V3.88C58.6679 3.88 57.5103 4.19473 56.5666 4.89825L57.7619 6.50175ZM59.9642 5.88C60.6644 5.88 61.2651 6.04474 61.7922 6.35895L62.8163 4.64105C61.9567 4.12859 60.9974 3.88 59.9642 3.88V5.88ZM61.7993 6.36319C62.3342 6.67606 62.6678 7.066 62.857 7.53446L64.7115 6.78554C64.3406 5.86733 63.6875 5.15061 62.8091 4.63681L61.7993 6.36319ZM63.4012 6.23626L61.7612 6.91626L62.5272 8.76374L64.1672 8.08374L63.4012 6.23626ZM63.0556 7.42841C62.7716 6.79964 62.3019 6.32018 61.6934 5.99688L60.7551 7.76312C60.9998 7.89315 61.1435 8.0537 61.2328 8.25159L63.0556 7.42841ZM61.7264 6.01521C61.1472 5.67895 60.5046 5.52 59.8242 5.52V7.52C60.1838 7.52 60.4745 7.60105 60.7221 7.74479L61.7264 6.01521ZM59.8242 5.52C59.1685 5.52 58.5507 5.6866 57.9969 6.03036L59.0516 7.72964C59.2711 7.5934 59.5199 7.52 59.8242 7.52V5.52ZM57.9835 6.03882C57.4147 6.40445 56.9642 6.97761 56.9642 7.76H58.9642C58.9642 7.76428 58.9635 7.77545 58.9592 7.79C58.955 7.80453 58.9497 7.81396 58.9479 7.81688C58.9451 7.82125 58.9676 7.78377 59.065 7.72118L57.9835 6.03882ZM56.9642 7.76C56.9642 8.41133 57.2929 8.92584 57.7544 9.27636C58.1807 9.60014 58.7339 9.801 59.3221 9.93501L59.7664 7.98499C59.3012 7.879 59.0644 7.75986 58.964 7.68364C58.9214 7.65122 58.9255 7.64315 58.9397 7.66902C58.9566 7.6999 58.9642 7.73587 58.9642 7.76H56.9642ZM59.2955 9.92858L60.7755 10.3086L61.2729 8.37142L59.7929 7.99142L59.2955 9.92858ZM60.7848 10.3109C61.6558 10.5257 62.1931 10.8259 62.5047 11.1397C62.7911 11.428 62.9442 11.7832 62.9442 12.28H64.9442C64.9442 11.2968 64.6107 10.422 63.9237 9.73031C63.262 9.06407 62.3393 8.63432 61.2636 8.36908L60.7848 10.3109Z" fill="black"/>
</g>
<defs>
<filter id="filter0_d_47_97" x="0.439941" y="0.520004" width="67.5043" height="22.8" filterUnits="userSpaceOnUse" color-interpolation-filters="sRGB">
<feFlood flood-opacity="0" result="BackgroundImageFix"/>
<feColorMatrix in="SourceAlpha" type="matrix" values="0 0 0 0 0 0 0 0 0 0 0 0 0 0 0 0 0 0 127 0" result="hardAlpha"/>
<feOffset dy="4"/>
<feGaussianBlur stdDeviation="2"/>
<feComposite in2="hardAlpha" operator="out"/>
<feColorMatrix type="matrix" values="0 0 0 0 0 0 0 0 0 0 0 0 0 0 0 0 0 0 0.25 0"/>
<feBlend mode="normal" in2="BackgroundImageFix" result="effect1_dropShadow_47_97"/>
<feBlend mode="normal" in="SourceGraphic" in2="effect1_dropShadow_47_97" result="shape"/>
</filter>
</defs>
</svg>
