<svg width="74" height="74" viewBox="0 0 74 74" fill="none" xmlns="http://www.w3.org/2000/svg">
<path opacity="0.2" d="M62.4375 13.875H20.8125C20.1992 13.875 19.611 14.1186 19.1773 14.5523C18.7436 14.986 18.5 15.5742 18.5 16.1875V23.125H53.1875C53.8008 23.125 54.389 23.3686 54.8227 23.8023C55.2564 24.236 55.5 24.8242 55.5 25.4375V50.875H62.4375C63.0508 50.875 63.639 50.6314 64.0727 50.1977C64.5064 49.764 64.75 49.1758 64.75 48.5625V16.1875C64.75 15.5742 64.5064 14.986 64.0727 14.5523C63.639 14.1186 63.0508 13.875 62.4375 13.875Z" fill="black"/>
<path d="M53.1875 23.125H11.5625C10.2853 23.125 9.25 24.1603 9.25 25.4375V57.8125C9.25 59.0897 10.2853 60.125 11.5625 60.125H53.1875C54.4647 60.125 55.5 59.0897 55.5 57.8125V25.4375C55.5 24.1603 54.4647 23.125 53.1875 23.125Z" stroke="black" stroke-width="2" stroke-linecap="round" stroke-linejoin="round"/>
<path d="M18.5 23.125V16.1875C18.5 15.5742 18.7436 14.986 19.1773 14.5523C19.611 14.1186 20.1992 13.875 20.8125 13.875H62.4375C63.0508 13.875 63.639 14.1186 64.0727 14.5523C64.5064 14.986 64.75 15.5742 64.75 16.1875V48.5625C64.75 49.1758 64.5064 49.764 64.0727 50.1977C63.639 50.6314 63.0508 50.875 62.4375 50.875H55.5" stroke="black" stroke-width="2" stroke-linecap="round" stroke-linejoin="round"/>
<path d="M9.25 32.375H55.5" stroke="black" stroke-width="2" stroke-linecap="round" stroke-linejoin="round"/>
</svg>
