<svg width="74" height="74" viewBox="0 0 74 74" fill="none" xmlns="http://www.w3.org/2000/svg">
<path opacity="0.2" d="M62.4375 53.1875V20.8125C62.4375 18.2582 60.3668 16.1875 57.8125 16.1875L13.875 16.1875C11.3207 16.1875 9.25 18.2582 9.25 20.8125V53.1875C9.25 55.7418 11.3207 57.8125 13.875 57.8125H57.8125C60.3668 57.8125 62.4375 55.7418 62.4375 53.1875Z" fill="black"/>
<path d="M71.6875 27.75V46.25" stroke="black" stroke-width="2" stroke-linecap="round" stroke-linejoin="round"/>
<path d="M62.4375 53.1875V20.8125C62.4375 18.2582 60.3668 16.1875 57.8125 16.1875L13.875 16.1875C11.3207 16.1875 9.25 18.2582 9.25 20.8125V53.1875C9.25 55.7418 11.3207 57.8125 13.875 57.8125H57.8125C60.3668 57.8125 62.4375 55.7418 62.4375 53.1875Z" stroke="black" stroke-width="2" stroke-linecap="round" stroke-linejoin="round"/>
<path d="M35.8438 48.5625L40.4688 37H31.2188L35.8438 25.4375" stroke="black" stroke-width="2" stroke-linecap="round" stroke-linejoin="round"/>
</svg>
