<svg width="74" height="74" viewBox="0 0 74 74" fill="none" xmlns="http://www.w3.org/2000/svg">
<path opacity="0.2" d="M25.4375 46.25C33.739 46.25 40.4688 39.5203 40.4688 31.2188C40.4688 22.9172 33.739 16.1875 25.4375 16.1875C17.136 16.1875 10.4062 22.9172 10.4062 31.2188C10.4062 39.5203 17.136 46.25 25.4375 46.25Z" fill="black"/>
<path d="M25.4375 46.25C33.739 46.25 40.4688 39.5203 40.4688 31.2188C40.4688 22.9172 33.739 16.1875 25.4375 16.1875C17.136 16.1875 10.4062 22.9172 10.4062 31.2188C10.4062 39.5203 17.136 46.25 25.4375 46.25Z" stroke="black" stroke-width="2" stroke-miterlimit="10"/>
<path d="M44.9203 16.7367C46.249 16.3763 47.6193 16.1917 48.9961 16.1875C52.9826 16.1875 56.8059 17.7711 59.6248 20.5901C62.4437 23.409 64.0273 27.2322 64.0273 31.2188C64.0273 35.2053 62.4437 39.0285 59.6248 41.8474C56.8059 44.6664 52.9826 46.25 48.9961 46.25" stroke="black" stroke-width="2" stroke-linecap="round" stroke-linejoin="round"/>
<path d="M4.625 57.0607C6.97203 53.7209 10.0884 50.9949 13.7108 49.113C17.3333 47.2312 21.3554 46.2488 25.4375 46.2488C29.5196 46.2488 33.5417 47.2312 37.1642 49.113C40.7866 50.9949 43.903 53.7209 46.25 57.0607" stroke="black" stroke-width="2" stroke-linecap="round" stroke-linejoin="round"/>
<path d="M48.9961 46.25C53.0785 46.2475 57.1015 47.2287 60.7243 49.1105C64.3471 50.9924 67.4632 53.7195 69.8086 57.0609" stroke="black" stroke-width="2" stroke-linecap="round" stroke-linejoin="round"/>
</svg>
