<svg width="77" height="77" viewBox="0 0 77 77" fill="none" xmlns="http://www.w3.org/2000/svg">
<path opacity="0.2" d="M64.8184 14.4375H12.1816C10.7696 14.4375 9.625 15.5821 9.625 16.9941V60.0059C9.625 61.4179 10.7696 62.5625 12.1816 62.5625H64.8184C66.2304 62.5625 67.375 61.4179 67.375 60.0059V16.9941C67.375 15.5821 66.2304 14.4375 64.8184 14.4375Z" fill="black"/>
<path d="M24.0625 28.875L36.0938 38.5L24.0625 48.125" stroke="black" stroke-width="2" stroke-linecap="round" stroke-linejoin="round"/>
<path d="M40.9062 48.125H52.9375" stroke="black" stroke-width="2" stroke-linecap="round" stroke-linejoin="round"/>
<path d="M64.8184 14.4375H12.1816C10.7696 14.4375 9.625 15.5821 9.625 16.9941V60.0059C9.625 61.4179 10.7696 62.5625 12.1816 62.5625H64.8184C66.2304 62.5625 67.375 61.4179 67.375 60.0059V16.9941C67.375 15.5821 66.2304 14.4375 64.8184 14.4375Z" stroke="black" stroke-width="2.12125" stroke-linecap="round" stroke-linejoin="round"/>
</svg>
